<?xml version="1.0" encoding="UTF-8"?>
<svg xmlns="http://www.w3.org/2000/svg" xmlns:xlink="http://www.w3.org/1999/xlink" width="51px" height="50px" viewBox="0 0 50 50" version="1.1">
<g id="surface1">
<path style=" stroke:none;fill-rule:nonzero;fill:rgb(16.078431%,18.039216%,20.784314%);fill-opacity:1;" d="M 39.859375 23.121094 C 34.859375 22.203125 31.085938 20.261719 28.65625 17.351562 C 28.1875 16.789062 27.820312 16.25 27.527344 15.746094 L 35.65625 12.378906 L 25.585938 8.460938 L 22.660156 8.460938 L 22.605469 14.539062 C 22.289062 15.285156 21.753906 16.289062 20.863281 17.351562 C 18.433594 20.265625 14.660156 22.207031 9.660156 23.121094 L 7.714844 23.480469 L 13.082031 40.488281 L 36.433594 40.488281 L 41.804688 23.480469 Z M 39.859375 23.121094 "/>
<path style=" stroke:none;fill-rule:nonzero;fill:rgb(91.764706%,25.098039%,45.490196%);fill-opacity:1;" d="M 24.761719 13.554688 C 24.761719 13.554688 23.296875 22.390625 9.976562 24.832031 L 14.371094 38.746094 L 24.761719 38.746094 "/>
<path style=" stroke:none;fill-rule:nonzero;fill:rgb(91.764706%,25.098039%,45.490196%);fill-opacity:1;" d="M 24.761719 38.746094 L 35.152344 38.746094 L 39.542969 24.832031 C 26.222656 22.390625 24.761719 13.554688 24.761719 13.554688 "/>
<path style=" stroke:none;fill-rule:nonzero;fill:rgb(100%,100%,100%);fill-opacity:1;" d="M 24.761719 13.554688 C 24.761719 13.554688 23.972656 22.390625 16.824219 24.832031 L 19.179688 38.746094 L 30.339844 38.746094 L 32.695312 24.832031 C 25.546875 22.390625 24.761719 13.554688 24.761719 13.554688 Z M 24.761719 13.554688 "/>
<path style=" stroke:none;fill-rule:nonzero;fill:rgb(16.078431%,18.039216%,20.784314%);fill-opacity:1;" d="M 26.75 14.921875 L 22.769531 14.921875 L 22.769531 15.746094 L 26.75 15.746094 Z M 26.75 14.921875 "/>
<path style=" stroke:none;fill-rule:nonzero;fill:rgb(91.764706%,25.098039%,45.490196%);fill-opacity:1;" d="M 22.648438 27.863281 C 22.648438 27.863281 23.640625 27.800781 24.492188 27.472656 C 24.492188 27.472656 22.683594 26.671875 20.492188 23.347656 C 19.835938 25.457031 19.535156 27.054688 19.984375 30.152344 C 20.277344 29.855469 21.015625 28.777344 21.015625 28.777344 C 21.871094 33.71875 28.136719 34.953125 28.945312 33.164062 C 28.769531 33.191406 28.601562 33.21875 28.441406 33.207031 C 27.863281 33.164062 27.320312 32.976562 26.902344 32.730469 C 26.875 32.714844 26.859375 32.675781 26.871094 32.636719 C 26.882812 32.605469 26.914062 32.582031 26.945312 32.59375 C 27.441406 32.761719 27.921875 32.84375 28.367188 32.84375 C 28.609375 32.84375 28.839844 32.820312 29.050781 32.769531 C 29.425781 32.675781 29.710938 32.5 29.949219 31.925781 C 29.746094 31.96875 29.554688 31.992188 29.359375 31.992188 C 28.941406 31.992188 28.585938 31.886719 28.289062 31.78125 C 28.257812 31.769531 28.238281 31.730469 28.246094 31.695312 C 28.253906 31.660156 28.277344 31.632812 28.3125 31.640625 C 29.105469 31.738281 29.855469 31.644531 30.414062 31.382812 C 30.773438 31.21875 31.03125 30.980469 31.183594 30.34375 C 26.34375 31.320312 23.519531 29.195312 22.652344 27.867188 Z M 22.648438 27.863281 "/>
<path style=" stroke:none;fill-rule:nonzero;fill:rgb(16.078431%,18.039216%,20.784314%);fill-opacity:1;" d="M 26.875 27.863281 C 26.875 27.863281 25.878906 27.800781 25.03125 27.472656 C 25.03125 27.472656 26.839844 26.671875 29.027344 23.347656 C 29.6875 25.457031 29.984375 27.054688 29.539062 30.152344 C 29.242188 29.855469 28.503906 28.777344 28.503906 28.777344 C 27.652344 33.71875 21.382812 34.953125 20.578125 33.164062 C 20.75 33.191406 20.917969 33.21875 21.078125 33.207031 C 21.660156 33.164062 22.199219 32.976562 22.621094 32.730469 C 22.648438 32.714844 22.664062 32.675781 22.652344 32.636719 C 22.640625 32.605469 22.605469 32.582031 22.578125 32.59375 C 22.078125 32.761719 21.601562 32.84375 21.15625 32.84375 C 20.910156 32.84375 20.679688 32.820312 20.46875 32.769531 C 20.097656 32.675781 19.8125 32.5 19.574219 31.925781 C 19.773438 31.96875 19.96875 31.992188 20.164062 31.992188 C 20.582031 31.992188 20.9375 31.886719 21.234375 31.78125 C 21.265625 31.769531 21.28125 31.730469 21.277344 31.695312 C 21.269531 31.660156 21.242188 31.632812 21.207031 31.640625 C 20.417969 31.738281 19.667969 31.644531 19.105469 31.382812 C 18.746094 31.21875 18.492188 30.980469 18.339844 30.34375 C 23.175781 31.320312 26.003906 29.195312 26.871094 27.867188 Z M 26.875 27.863281 "/>
<path style=" stroke:none;fill-rule:nonzero;fill:rgb(100%,100%,100%);fill-opacity:1;" d="M 25.296875 10.085938 L 24.222656 10.085938 L 24.222656 14.921875 L 25.296875 14.921875 L 31.753906 12.429688 Z M 25.296875 10.085938 "/>
<path style=" stroke:none;fill-rule:nonzero;fill:rgb(91.764706%,25.098039%,45.490196%);fill-opacity:1;" d="M 25.296875 14.921875 L 31.753906 12.429688 L 25.296875 10.085938 Z M 25.296875 14.921875 "/>
<path style=" stroke:none;fill-rule:nonzero;fill:rgb(16.078431%,18.039216%,20.784314%);fill-opacity:1;" d="M 24.761719 34.375 C 23.808594 34.792969 22.84375 35.003906 22.015625 35.019531 L 22.296875 38.753906 L 22.296875 40.195312 L 27.222656 40.195312 L 27.222656 38.753906 L 27.503906 35.019531 C 26.675781 35.003906 25.710938 34.792969 24.761719 34.375 Z M 24.761719 34.375 "/>
</g>
</svg>
